#!OML:ASF F:\VICON\USERDATA\INSTALL\rory3\rory3.ASF
:FULLY-SPECIFIED
:DEGREES
575
root -0.207177 17.6201 8.47395 184.617 27.8122 -176.363
lowerback 14.1923 9.08951 7.0974
upperback 2.50913 13.2991 -3.56998
thorax -2.65977 6.76227 -9.60783
lowerneck -16.4005 16.7845 -6.51826
upperneck 49.4535 20.2388 6.52269
head 20.866 5.49328 7.76033
rclavicle 3.85642e-014 3.02153e-014
rhumerus -28.2594 -3.81112 -77.0451
rradius 48.4699
rwrist 1.99596
rhand -15.4112 8.20871
rfingers 7.12502
rthumb 10.7681 -21.4953
lclavicle 3.85642e-014 3.02153e-014
lhumerus -36.509 15.3242 72.9741
lradius 36.191
lwrist -1.75978
lhand -22.0835 26.3518
lfingers 7.12502
lthumb 4.32819 56.2876
rfemur 3.7732 -6.4269 30.1936
rtibia 22.5301
rfoot -17.8584 0.155106
rtoes -4.86234
lfemur -27.6177 -3.50558 -21.2391
ltibia 12.6027
lfoot 31.3749 -20.2378
ltoes 32.3131
576
root -0.304505 17.6201 8.57693 184.553 27.8573 -176.367
lowerback 14.4179 9.03668 7.07087
upperback 2.5973 13.2471 -3.50166
thorax -2.72019 6.73783 -9.55517
lowerneck -16.3043 16.761 -6.31657
upperneck 49.304 20.2247 6.31771
head 20.8199 5.5209 7.61356
rclavicle 4.28381e-014 -1.39149e-014
rhumerus -28.2668 -4.21708 -76.9024
rradius 48.2673
rwrist 2.05737
rhand -15.3291 8.26282
rfingers 7.12502
rthumb 10.8473 -21.437
lclavicle 4.28381e-014 -1.39149e-014
lhumerus -36.638 14.5878 73.4367
lradius 36.2069
lwrist -1.67629
lhand -20.7318 26.3828
lfingers 7.12502
lthumb 5.63332 56.2879
rfemur 3.08595 -6.25625 30.0954
rtibia 22.9714
rfoot -18.1089 0.223967
rtoes -3.65622
lfemur -27.6955 -3.23028 -21.1791
ltibia 12.0868
lfoot 31.9087 -16.7791
ltoes 33.2933
577
root -0.40185 17.6202 8.67661 184.442 27.8431 -176.413
lowerback 14.6377 8.92213 6.97147
upperback 2.73394 13.1052 -3.40524
thorax -2.76699 6.67225 -9.42039
lowerneck -16.5102 16.7206 -6.40957
upperneck 49.3143 20.2061 6.40939
head 20.8506 5.51104 7.6953
rclavicle -2.10712e-014 2.62396e-014
rhumerus -28.211 -4.43117 -76.816
rradius 48.0527
rwrist 2.02427
rhand -15.2992 8.15627
rfingers 7.12502
rthumb 10.8761 -21.5421
lclavicle -2.10712e-014 2.62396e-014
lhumerus -36.8658 13.7507 73.9773
lradius 36.4883
lwrist -1.41103
lhand -19.9801 26.2335
lfingers 7.12502
lthumb 6.35907 56.1181
rfemur 2.44853 -6.1486 29.9699
rtibia 23.3305
rfoot -18.2565 0.196947
rtoes -2.7514
lfemur -27.8479 -3.29771 -21.04
ltibia 12.0738
lfoot 30.7201 -13.9404
ltoes 31.2601
578
root -0.499298 17.6194 8.77214 184.326 27.7322 -176.316
lowerback 14.9252 8.7602 7.0819
upperback 2.84378 12.936 -3.28583
thorax -2.8422 6.58872 -9.38419
lowerneck -16.6603 16.6834 -6.62858
upperneck 49.3548 20.1254 6.69328
head 20.8201 5.48701 7.86315
rclavicle 3.27995e-015 1.11319e-014
rhumerus -28.1911 -4.52101 -76.7592
rradius 47.7545
rwrist 1.64525
rhand -15.3576 7.84945
rfingers 7.12502
rthumb 10.8198 -21.8519
lclavicle 3.27995e-015 1.11319e-014
lhumerus -37.0513 13.1543 74.3986
lradius 36.5642
lwrist -1.38906
lhand -19.9385 25.9137
lfingers 7.12502
lthumb 6.39923 55.7971
rfemur 1.96948 -6.19844 29.9744
rtibia 23.6529
rfoot -18.3723 0.157262
rtoes -1.65063
lfemur -28.009 -3.63731 -20.6807
ltibia 12.5065
lfoot 28.4638 -12.7295
ltoes 25.0705
579
root -0.595846 17.6173 8.8663 184.24 27.5683 -176.102
lowerback 15.2043 8.58846 7.35296
upperback 2.94121 12.7798 -3.16145
thorax -2.88943 6.51249 -9.42589
lowerneck -16.6364 16.6308 -6.67759
upperneck 49.254 20.0499 6.72357
head 20.7312 5.47854 7.855
rclavicle -8.75646e-014 6.16232e-015
rhumerus -28.3284 -4.63817 -76.7104
rradius 47.5683
rwrist 1.12032
rhand -15.4043 7.86108
rfingers 7.12502
rthumb 10.7748 -21.8426
lclavicle -8.75646e-014 6.16232e-015
lhumerus -37.1677 12.6615 74.7347
lradius 36.4697
lwrist -1.63981
lhand -19.8047 25.8126
lfingers 7.12502
lthumb 6.52834 55.692
rfemur 1.565 -6.18703 30.128
rtibia 23.9593
rfoot -18.5157 -0.109544
rtoes -1.51699
lfemur -28.2476 -4.38457 -20.0561
ltibia 13.3633
lfoot 25.528 -12.6943
ltoes 17.6736
580
root -0.691675 17.6234 8.95958 184.201 27.467 -176.014
lowerback 15.402 8.46439 7.43137
upperback 3.01522 12.6491 -3.07915
thorax -2.9452 6.44783 -9.39952
lowerneck -16.5751 16.5733 -6.61976
upperneck 49.0973 19.9934 6.6097
head 20.6456 5.4802 7.76098
rclavicle 5.04913e-014 -2.74323e-014
rhumerus -28.5648 -4.90024 -76.6844
rradius 47.4992
rwrist 0.900233
rhand -15.58 8.09775
rfingers 7.12502
rthumb 10.6053 -21.6146
lclavicle 5.04913e-014 -2.74323e-014
lhumerus -37.2885 12.117 75.0297
lradius 36.4219
lwrist -2.01434
lhand -19.4641 25.7709
lfingers 7.12502
lthumb 6.85712 55.6398
rfemur 1.05037 -6.18481 30.1882
rtibia 24.1955
rfoot -18.598 -0.57591
rtoes -3.89158
lfemur -28.7054 -5.23876 -19.4863
ltibia 14.6033
lfoot 22.4862 -13.3671
ltoes 12.3249
